Coordinates
version=1
nRows=29
nColumns=22
inDegrees=yes

Units are S.I. units (second, meters, Newtons, ...)
If the header above contains a line with 'inDegrees', this indicates whether rotational values are in degrees (yes) or radians (no).

endheader
time	pelvis_tilt	pelvis_list	pelvis_rotation	pelvis_tx	pelvis_ty	pelvis_tz	hip_flexion_r	hip_adduction_r	hip_rotation_r	knee_angle_r	ankle_angle_r	subtalar_angle_r	hip_flexion_l	hip_adduction_l	hip_rotation_l	knee_angle_l	ankle_angle_l	subtalar_angle_l	lumbar_extension	lumbar_bending	lumbar_rotation
      3.54000000	      2.61176695	     -0.22902086	    -35.91246892	      0.86458064	      0.87598581	      0.53350710	      1.15491907	     -4.49311889	      0.93478601	    -57.12953871	     10.03925750	     -6.56338680	     23.59258858	      0.02244113	     -9.32216803	    -29.74919930	      4.94097323	     -3.72014815	     -6.20268364	     -3.93326695	      5.69366173
      3.55000000	      2.64110181	     -0.19716465	    -35.87698002	      0.87114476	      0.87794348	      0.53574244	      2.29511895	     -4.64750677	      0.58557604	    -57.89492955	     10.81147934	     -7.94296273	     22.85646861	      0.26778616	     -9.28744356	    -29.31694603	      5.10396235	     -3.58740752	     -6.53552879	     -3.99898582	      5.37776568
      3.56000000	      2.62754289	     -0.21991858	    -35.83967315	      0.87746939	      0.87998447	      0.53797590	      3.36724646	     -4.71616832	      0.20951577	    -58.31459998	     11.60385626	     -9.27577477	     22.12195758	      0.41373499	     -9.29193041	    -28.85943589	      5.24773366	     -3.42272809	     -6.86262457	     -3.98613860	      5.05562815
      3.57000000	      2.58117054	     -0.26587947	    -35.81490559	      0.88355882	      0.88206257	      0.54019569	      4.39097502	     -4.73641269	     -0.17633711	    -58.41605659	     12.37963424	    -10.40775411	     21.38350098	      0.50948921	     -9.28899975	    -28.34228782	      5.32466544	     -3.25302668	     -7.17084081	     -3.93409408	      4.77922479
      3.58000000	      2.51291597	     -0.32361958	    -35.79882651	      0.88942480	      0.88410719	      0.54238996	      5.36928337	     -4.72799485	     -0.57356686	    -58.23089984	     13.12388901	    -11.31318683	     20.65867855	      0.56290654	     -9.32670622	    -27.80322808	      5.40447319	     -3.08914239	     -7.46316452	     -3.85474718	      4.47793251
      3.59000000	      2.41096206	     -0.40389159	    -35.80592309	      0.89510959	      0.88609113	      0.54460414	      6.29023927	     -4.67994488	     -0.98919100	    -57.74756738	     13.85886557	    -12.10310591	     19.94686873	      0.55284538	     -9.42870678	    -27.24456506	      5.48432812	     -2.93372423	     -7.72351276	     -3.73360815	      4.24307465
      3.60000000	      2.29443854	     -0.47644586	    -35.84346196	      0.90063452	      0.88797213	      0.54682467	      7.16625425	     -4.63689732	     -1.41480170	    -57.00472890	     14.56232573	    -12.68485952	     19.25029774	      0.52638231	     -9.57870027	    -26.66658242	      5.55365888	     -2.81360094	     -7.94890294	     -3.60748184	      4.03730710
      3.61000000	      2.18378887	     -0.53404260	    -35.89444531	      0.90605378	      0.88973277	      0.54903419	      7.97627707	     -4.63630291	     -1.89859561	    -56.01748431	     15.24123893	    -13.08487936	     18.56452658	      0.50702584	     -9.78589121	    -26.08756618	      5.64651976	     -2.72776357	     -8.14912222	     -3.49526503	      3.86041031
      3.62000000	      2.07932952	     -0.59379850	    -35.97692791	      0.91135823	      0.89139909	      0.55127413	      8.70322874	     -4.64044606	     -2.39114770	    -54.78977110	     15.91200520	    -13.45298806	     17.86599838	      0.48321025	    -10.02186161	    -25.48856431	      5.73162659	     -2.66783539	     -8.33529008	     -3.38169427	      3.69975403
      3.63000000	      1.98654180	     -0.65582408	    -36.07742776	      0.91658007	      0.89296195	      0.55352965	      9.33588137	     -4.65632472	     -2.91664853	    -53.33691682	     16.57915313	    -13.86906980	     17.16456190	      0.45925393	    -10.29514367	    -24.89728006	      5.80089621	     -2.63772906	     -8.51059535	     -3.26886071	      3.56543558
      3.64000000	      1.93326632	     -0.72464995	    -36.15558581	      0.92182348	      0.89444413	      0.55577048	      9.82764696	     -4.72546979	     -3.56195463	    -51.67150887	     17.19597892	    -14.06531943	     16.43452466	      0.46752373	    -10.54414826	    -24.32096939	      5.95783541	     -2.63826426	     -8.69750692	     -3.16720655	      3.41529266
      3.65000000	      1.91461368	     -0.82275965	    -36.22522214	      0.92704048	      0.89588995	      0.55803071	     10.16412432	     -4.78155213	     -4.24549027	    -49.79825166	     17.76920236	    -14.24885376	     15.66576346	      0.47574632	    -10.78620300	    -23.75694133	      6.11904150	     -2.66377566	     -8.90988079	     -3.05295480	      3.23985825
      3.66000000	      1.92533188	     -0.95141088	    -36.27711333	      0.93224784	      0.89728727	      0.56031474	     10.34857238	     -4.82836644	     -5.00517991	    -47.74621814	     18.27989305	    -14.38866167	     14.87719890	      0.47921084	    -11.00542685	    -23.23531655	      6.27651074	     -2.71380797	     -9.14071246	     -2.92708840	      3.07861922
      3.67000000	      1.94934625	     -1.11308491	    -36.28854590	      0.93742820	      0.89862283	      0.56261030	     10.39047781	     -4.82690039	     -5.80136436	    -45.53641862	     18.71357991	    -14.39547528	     14.08709753	      0.46844838	    -11.16325260	    -22.75996490	      6.47473762	     -2.76949565	     -9.38012795	     -2.77250027	      2.85209253
      3.68000000	      1.99858351	     -1.31312362	    -36.25968809	      0.94259673	      0.89993287	      0.56493020	     10.27949731	     -4.78734138	     -6.65882718	    -43.19643764	     19.01940029	    -14.25366534	     13.27503597	      0.44431652	    -11.26038950	    -22.32203868	      6.67411557	     -2.83645997	     -9.63958447	     -2.59645899	      2.61806550
      3.69000000	      2.06693138	     -1.53855641	    -36.19051068	      0.94771919	      0.90118946	      0.56726375	     10.04558750	     -4.70579844	     -7.55260149	    -40.77060625	     19.20961680	    -13.87321564	     12.46334649	      0.41145467	    -11.29148227	    -21.93312829	      6.87690559	     -2.90730170	     -9.90970904	     -2.40806823	      2.38487074
      3.70000000	      2.15418411	     -1.76095303	    -36.09298668	      0.95275682	      0.90237003	      0.56963409	      9.72909334	     -4.58618867	     -8.40480090	    -38.30660088	     19.31473269	    -13.07318127	     11.65807075	      0.38685671	    -11.28548486	    -21.56907439	      7.05980642	     -2.97851445	    -10.17031867	     -2.23686539	      2.08770637
      3.71000000	      2.19978952	     -2.00404228	    -35.94097852	      0.95767560	      0.90340686	      0.57198612	      9.37739649	     -4.36649251	     -9.23440862	    -35.83115440	     19.30825499	    -12.19698216	     10.93629817	      0.31035867	    -11.19903612	    -21.29246595	      7.29537127	     -3.02341442	    -10.39046257	     -2.01549830	      1.77141150
      3.72000000	      2.23163677	     -2.23326595	    -35.76240931	      0.96245106	      0.90430634	      0.57434112	      9.02189837	     -4.09180689	     -9.96910262	    -33.40735613	     19.22047499	    -11.19434400	     10.27224487	      0.22572625	    -11.07534143	    -21.06212874	      7.54392050	     -3.05635075	    -10.57270844	     -1.80076184	      1.44022760
      3.73000000	      2.23975263	     -2.43698405	    -35.57215916	      0.96705030	      0.90504142	      0.57668733	      8.70953252	     -3.76879806	    -10.56515464	    -31.09302326	     19.05578388	     -9.99823800	      9.69032557	      0.12770715	    -10.97100908	    -20.89226655	      7.78900014	     -3.08131876	    -10.70562272	     -1.59628801	      1.11191682
      3.74000000	      2.24065310	     -2.60453235	    -35.35798692	      0.97150232	      0.90563297	      0.57899633	      8.44322743	     -3.42757628	    -11.00429069	    -28.92471529	     18.87095525	     -8.92759633	      9.15275000	      0.05728326	    -10.79284680	    -20.72424469	      8.07673185	     -3.08741344	    -10.79926769	     -1.42142184	      0.77965885
      3.75000000	      2.19529763	     -2.72809562	    -35.17089140	      0.97571395	      0.90603078	      0.58132201	      8.29698998	     -3.04720294	    -11.20093054	    -26.95472465	     18.64199229	     -7.69315311	      8.72847547	     -0.03552917	    -10.70579168	    -20.61835128	      8.30816704	     -3.08821905	    -10.81727173	     -1.26888247	      0.48058705
      3.76000000	      2.14802841	     -2.80724886	    -34.97807482	      0.97975772	      0.90629912	      0.58359060	      8.22613102	     -2.67656736	    -11.16371862	    -25.19686242	     18.40742819	     -6.59721999	      8.35159697	     -0.09612742	    -10.59881876	    -20.52129051	      8.59710304	     -3.06210687	    -10.80594281	     -1.15413852	      0.15677013
      3.77000000	      2.05485230	     -2.84152619	    -34.83294412	      0.98360143	      0.90641556	      0.58587170	      8.28377507	     -2.29688940	    -10.88045256	    -23.67038287	     18.13974857	     -5.50607261	      8.05285162	     -0.16262072	    -10.55305093	    -20.42834067	      8.83890977	     -3.01765633	    -10.71939389	     -1.05904334	     -0.08601281
      3.78000000	      1.94982276	     -2.84436317	    -34.71581688	      0.98727856	      0.90644204	      0.58814315	      8.41190438	     -1.92926007	    -10.37670104	    -22.35436109	     17.87394289	     -4.55019015	      7.79549027	     -0.22321097	    -10.55253590	    -20.34400927	      9.09686797	     -2.94314965	    -10.60309582	     -0.98717258	     -0.31147435
      3.79000000	      1.82781208	     -2.82170498	    -34.63823504	      0.99079899	      0.90639946	      0.59043056	      8.60722636	     -1.57200885	     -9.68196621	    -21.24650564	     17.59605043	     -3.70059434	      7.57264721	     -0.28677328	    -10.61434394	    -20.25941437	      9.34409277	     -2.84170279	    -10.45533471	     -0.93302973	     -0.49658093
      3.80000000	      1.69243974	     -2.77424932	    -34.59506148	      0.99421916	      0.90632059	      0.59272239	      8.84703223	     -1.24218071	     -8.87923295	    -20.31771676	     17.31286893	     -2.91216603	      7.35590649	     -0.33628940	    -10.67667369	    -20.12902477	      9.55800461	     -2.71047750	    -10.27381911	     -0.89186518	     -0.62488038
      3.81000000	      1.55253646	     -2.72538061	    -34.59349617	      0.99749951	      0.90622659	      0.59505535	      9.10514011	     -0.91876684	     -7.97903444	    -19.55679699	     17.03510525	     -2.30036650	      7.14985393	     -0.40354290	    -10.80504509	    -20.00845784	      9.77759270	     -2.57068596	    -10.08831210	     -0.85208341	     -0.72671779
      3.82000000	      1.41244439	     -2.66873686	    -34.62106771	      1.00069104	      0.90612958	      0.59741830	      9.36975554	     -0.61967998	     -7.06558517	    -18.94582800	     16.75093540	     -1.76891577	      6.94278788	     -0.46763884	    -10.95022216	    -19.87480873	      9.98210338	     -2.41395840	     -9.89307215	     -0.82041792	     -0.78100414
